# xmcd
# 
# Track frame offsets:
#     150
#     32142
#     73860
#     117847
#     146672
#     185047
#     225460
#     252517
# 
# Disc length: 3851
# 
# Revision: 4
# Processed by: cddbd v1.5.2PL0 Copyright (c) Steve Scherf et al.
# Submitted via: fre:ac v1.0.17
# 
DISCID=750f0908
DTITLE=Oscar Peterson - A Summer Night In Munich
DYEAR=1998
DGENRE=Jazz
TTITLE0=Backyard Blues
TTITLE1=When Summer Comes
TTITLE2=Nigerian Marketplace
TTITLE3=Evening Song
TTITLE4=Satin Doll
TTITLE5=Love Ballade
TTITLE6=Hymn to Freedom
TTITLE7=Sushi
EXTD=Oscar Peterson p - Ulf Wakenius g - Niels-Henning Oersted Pedersen b - Martin Drew dr - YEAR: 1998
EXTT0=
EXTT1=
EXTT2=
EXTT3=
EXTT4=
EXTT5=
EXTT6=
EXTT7=
PLAYORDER=
